<?xml version="1.0" encoding="utf-8"?>
<!-- Generator: Adobe Illustrator 23.0.3, SVG Export Plug-In . SVG Version: 6.00 Build 0)  -->
<svg version="1.1" id="Layer_1" xmlns="http://www.w3.org/2000/svg" xmlns:xlink="http://www.w3.org/1999/xlink" x="0px" y="0px"
	 viewBox="0 0 204.5 72" style="enable-background:new 0 0 204.5 72;" xml:space="preserve">
<style type="text/css">
	.st0{fill:#FFFFFF;}
</style>
<path class="st0" d="M61,68.1h2.8v0.6h-1.1v2.9h-0.7v-2.9H61V68.1z M67.1,68.1l-0.8,2.6l-0.9-2.6h-1v3.5H65v-2.8l1,2.8h0.5l1-2.8
	v2.8h0.6v-3.5H67.1z M72,36c0,19.9-16.1,36-36,36C16.1,72,0,55.9,0,36C0,16.1,16.1,0,36,0C55.9,0,72,16.1,72,36z M36,3.9
	C18.3,3.9,3.9,18.3,3.9,36S18.3,68.1,36,68.1S68.1,53.7,68.1,36S53.7,3.9,36,3.9z M50.4,35.3h-1.9v2.1H41V40h7.5v2.1h1.9
	c0.5-1.3,1.7-2.3,3.2-2.3v-2.3C52.1,37.6,50.8,36.6,50.4,35.3z M46.3,56v-3.5h-7.6V22.7h4.6c5.5,0,6.7,0.6,7.7,6h2.7v-9.5H18.4v9.5
	h2.7c1-5.4,2.1-6,7.7-6h4.6v29.9h-7.6V56H46.3z M31,37.4h-3.9c-1,0-1.8-0.8-1.8-1.8h-2.5c0,0.8,0.2,1.6,0.6,2.2h-0.4
	c-1.2,0-2.2-1-2.2-2.2h-2.5c0,1.2,0.5,2.3,1.3,3.1c-0.8,0.8-1.3,1.9-1.3,3.1h2.5c0-1.2,1-2.2,2.2-2.2h0.4c-0.4,0.6-0.6,1.4-0.6,2.2
	h2.5c0-1,0.8-1.8,1.8-1.8H31V37.4z M82.8,22.7v8h2.3c0.8-4.6,1.8-5.1,6.5-5.1h3.6v25.2H89v2.9h17.3v-2.9h-6.2V25.6h3.6
	c4.7,0,5.6,0.5,6.5,5.1h2.3v-8H82.8z M143.8,32.3c-4.3,0-7.4,2.8-7.4,6.5c0,3.3,2,5.1,7.3,6.5c4,1,5.8,1.9,5.8,4
	c0,1.8-1.3,2.9-3.6,2.9c-2.8,0-5.6-2.1-7.1-5.4h-2.7v7.5h2.6l0.7-3.2c1.4,1.8,3.5,3.2,6.7,3.2c5,0,7.7-3.4,7.7-6.6
	c0-3.8-2.7-5.3-7.4-6.5c-3.7-1-5.6-1.8-5.6-3.9c0-1.6,1.3-2.9,3.3-2.9c3.1,0,4.8,2.4,6.1,5h2.7v-7h-2.6l-0.6,3
	C148.5,33.5,146.7,32.3,143.8,32.3z M177.9,43.3c0-6.5-4.4-11-10.9-11c-6.5,0-10.9,4.5-10.9,11s4.4,11,10.9,11
	C173.5,54.3,177.9,49.8,177.9,43.3z M161.6,43.3c0-6.2,1.7-8.7,5.5-8.7s5.5,2.5,5.5,8.7S170.8,52,167,52S161.6,49.5,161.6,43.3z
	 M187.1,32.7h-8v2.9h3.3v15.2h-3.3v2.9h11v-2.9h-2.8v-8.6c0-4,2.7-6.5,5.2-6.5c2.3,0,3.8,1.7,3.8,4.7v10.4h-2.9v2.9h11.1v-2.9h-3.3
	V39.1c0-4.3-2.2-6.8-5.8-6.8c-3.2,0-6.2,1.3-8.3,4.9V32.7z M116,59.5c0,0,0.5-0.5,0.5-1.6c0-1.3-1-2.7-2.7-2.7c-1.6,0-2.8,1.3-2.8,3
	c0,2.3,2.3,3.6,4.7,3.6c4.2,0,6.9-2.7,9.3-8.3l7.5-17.7h2.4v-2.9h-8.7v2.9h3l-5.4,13.6l-5.4-13.6h3.6v-2.9h-11.8v2.9h2.9l8.2,18.5
	C119.7,58.2,118.6,59.2,116,59.5z"/>
</svg>
